<svg width="24" height="24" viewBox="0 0 24 24" fill="none" xmlns="http://www.w3.org/2000/svg">
<path d="M16.5 22H7.5C6.70435 22 5.94129 21.6839 5.37868 21.1213C4.81607 20.5587 4.5 19.7956 4.5 19V5C4.5 4.20435 4.81607 3.44129 5.37868 2.87868C5.94129 2.31607 6.70435 2 7.5 2H14.09C14.3523 2.0011 14.6037 2.10526 14.79 2.29L19.21 6.71C19.3947 6.89626 19.4989 7.14766 19.5 7.41V19C19.5 19.7956 19.1839 20.5587 18.6213 21.1213C18.0587 21.6839 17.2956 22 16.5 22Z" fill="#2196F3"/>
<path d="M18.8 7.74008H15.2C14.8021 7.74008 14.4206 7.58205 14.1393 7.30074C13.858 7.01944 13.7 6.63791 13.7 6.24008V2.64008C13.6995 2.53098 13.7315 2.42422 13.7919 2.33337C13.8524 2.24252 13.9384 2.17169 14.0392 2.12988C14.1399 2.08807 14.2509 2.07718 14.3579 2.09858C14.4648 2.11998 14.563 2.17272 14.64 2.25008L19.19 6.80008C19.2673 6.87701 19.3201 6.9752 19.3415 7.08218C19.3629 7.18916 19.352 7.30009 19.3102 7.40086C19.2683 7.50163 19.1975 7.58768 19.1067 7.64809C19.0158 7.70849 18.9091 7.74052 18.8 7.74008Z" fill="#82B1FF"/>
<path d="M8.29995 18.11C8.07463 18.1168 7.85224 18.0577 7.65995 17.94C7.4713 17.8141 7.32221 17.6373 7.22995 17.43C7.12405 17.1819 7.06946 16.9149 7.06946 16.645C7.06946 16.3752 7.12405 16.1082 7.22995 15.86C7.32221 15.6528 7.4713 15.476 7.65995 15.35C7.85139 15.2294 8.0737 15.1669 8.29995 15.17C8.47086 15.1675 8.63956 15.2088 8.78995 15.29C8.92983 15.35 9.0508 15.4467 9.13995 15.57V14.48C9.13485 14.4131 9.1448 14.3458 9.16908 14.2832C9.19335 14.2206 9.23133 14.1642 9.28024 14.1182C9.32914 14.0721 9.38773 14.0376 9.45171 14.0172C9.51568 13.9968 9.58342 13.9909 9.64995 14C9.71875 13.9954 9.78777 14.0046 9.85301 14.0269C9.91825 14.0492 9.9784 14.0843 10.03 14.13C10.0767 14.181 10.1124 14.241 10.1348 14.3064C10.1572 14.3718 10.1657 14.4412 10.16 14.51V17.62C10.1697 17.6884 10.1635 17.7581 10.142 17.8237C10.1204 17.8893 10.0841 17.9491 10.0358 17.9984C9.98742 18.0477 9.92838 18.0852 9.86321 18.108C9.79805 18.1309 9.7285 18.1384 9.65995 18.13C9.59818 18.1386 9.5353 18.1338 9.47549 18.1162C9.41568 18.0986 9.3603 18.0684 9.31302 18.0278C9.26574 17.9871 9.22764 17.9369 9.20125 17.8804C9.17487 17.8239 9.16079 17.7624 9.15995 17.7C9.07933 17.8405 8.95701 17.9523 8.80995 18.02C8.64989 18.0914 8.47476 18.1223 8.29995 18.11ZM8.62995 17.37C8.70137 17.3708 8.77198 17.355 8.8362 17.3237C8.90042 17.2925 8.95649 17.2467 8.99995 17.19C9.1158 17.0314 9.16919 16.8356 9.14995 16.64C9.16734 16.4447 9.11413 16.2495 8.99995 16.09C8.95451 16.0363 8.89781 15.9932 8.83387 15.9639C8.76993 15.9345 8.70032 15.9195 8.62995 15.92C8.55654 15.9186 8.48369 15.9331 8.41638 15.9624C8.34907 15.9918 8.28889 16.0353 8.23995 16.09C8.12578 16.2495 8.07256 16.4447 8.08995 16.64C8.07072 16.8356 8.12411 17.0314 8.23995 17.19C8.28652 17.2483 8.346 17.2949 8.4137 17.3261C8.48139 17.3573 8.55543 17.3724 8.62995 17.37Z" fill="#E3F2FD"/>
<path d="M12.32 18.1101C12.0369 18.121 11.7554 18.0627 11.5 17.9401C11.2732 17.8277 11.0851 17.6501 10.96 17.4301C10.8287 17.1893 10.7599 16.9194 10.7599 16.6451C10.7599 16.3708 10.8287 16.1009 10.96 15.8601C11.0851 15.6401 11.2732 15.4625 11.5 15.3501C11.7545 15.2241 12.036 15.1623 12.32 15.1701C12.6037 15.1646 12.8846 15.2263 13.14 15.3501C13.3647 15.4654 13.5521 15.6423 13.68 15.8601C13.8046 16.103 13.8695 16.3721 13.8695 16.6451C13.8695 16.9181 13.8046 17.1872 13.68 17.4301C13.5521 17.6479 13.3647 17.8248 13.14 17.9401C12.8838 18.0604 12.6029 18.1187 12.32 18.1101ZM12.32 17.3701C12.3915 17.3717 12.4624 17.3562 12.5267 17.3249C12.5911 17.2936 12.647 17.2474 12.69 17.1901C12.8058 17.0314 12.8592 16.8356 12.84 16.6401C12.8574 16.4447 12.8041 16.2496 12.69 16.0901C12.645 16.0358 12.5884 15.9924 12.5243 15.9629C12.4603 15.9335 12.3904 15.9189 12.32 15.9201C12.2466 15.9187 12.1737 15.9331 12.1064 15.9625C12.0391 15.9918 11.9789 16.0354 11.93 16.0901C11.8193 16.2509 11.7697 16.4459 11.79 16.6401C11.7688 16.8343 11.8185 17.0296 11.93 17.1901C11.9765 17.2483 12.036 17.2949 12.1037 17.3262C12.1714 17.3574 12.2454 17.3724 12.32 17.3701Z" fill="#E3F2FD"/>
<path d="M15.92 18.1099C15.6337 18.1209 15.349 18.0626 15.09 17.9399C14.8622 17.8253 14.6715 17.6485 14.54 17.4299C14.4071 17.1883 14.3415 16.9155 14.35 16.6399C14.3405 16.3642 14.4062 16.0911 14.54 15.8499C14.6694 15.6321 14.8609 15.458 15.09 15.3499C15.3481 15.2238 15.6329 15.1621 15.92 15.1699C16.0363 15.1563 16.1538 15.1563 16.27 15.1699C16.3978 15.1893 16.5224 15.2263 16.64 15.2799C16.7195 15.3105 16.7864 15.3668 16.83 15.4399C16.872 15.5088 16.8896 15.5898 16.88 15.6699C16.8781 15.7453 16.8537 15.8184 16.81 15.8799C16.7936 15.9113 16.771 15.9391 16.7435 15.9614C16.7159 15.9838 16.6842 16.0003 16.65 16.0099C16.6122 16.0264 16.5713 16.035 16.53 16.035C16.4887 16.035 16.4479 16.0264 16.41 16.0099C16.2917 15.9518 16.1618 15.9211 16.03 15.9199C15.9433 15.9141 15.8564 15.9272 15.7752 15.9582C15.6941 15.9893 15.6207 16.0377 15.56 16.0999C15.4416 16.2466 15.3811 16.4316 15.39 16.6199C15.3802 16.8083 15.4408 16.9937 15.56 17.1399C15.6184 17.2057 15.6912 17.2571 15.7727 17.29C15.8543 17.323 15.9423 17.3366 16.03 17.3299H16.21L16.41 17.2599C16.4479 17.2434 16.4887 17.2349 16.53 17.2349C16.5713 17.2349 16.6122 17.2434 16.65 17.2599C16.718 17.2813 16.7752 17.3278 16.81 17.3899C16.8494 17.4535 16.8734 17.5254 16.88 17.5999C16.879 17.6792 16.862 17.7574 16.83 17.8299C16.7822 17.9032 16.7121 17.9593 16.63 17.9899C16.5107 18.0389 16.3867 18.0758 16.26 18.0999L15.92 18.1099Z" fill="#E3F2FD"/>
</svg>
