<svg width="24" height="24" viewBox="0 0 24 24" fill="none" xmlns="http://www.w3.org/2000/svg">
<path d="M16.5 22H7.5C6.70435 22 5.94129 21.6839 5.37868 21.1213C4.81607 20.5587 4.5 19.7956 4.5 19V5C4.5 4.20435 4.81607 3.44129 5.37868 2.87868C5.94129 2.31607 6.70435 2 7.5 2H14.09C14.3523 2.0011 14.6037 2.10526 14.79 2.29L19.21 6.71C19.3947 6.89626 19.4989 7.14766 19.5 7.41V19C19.5 19.7956 19.1839 20.5587 18.6213 21.1213C18.0587 21.6839 17.2956 22 16.5 22Z" fill="#42B6B3"/>
<path d="M18.8 7.74008H15.2C14.8021 7.74008 14.4206 7.58205 14.1393 7.30074C13.858 7.01944 13.7 6.63791 13.7 6.24008V2.64008C13.6995 2.53098 13.7315 2.42422 13.7919 2.33337C13.8524 2.24252 13.9384 2.17169 14.0392 2.12988C14.1399 2.08807 14.2509 2.07718 14.3579 2.09858C14.4648 2.11998 14.563 2.17272 14.64 2.25008L19.19 6.80008C19.2673 6.87701 19.3201 6.9752 19.3415 7.08218C19.3629 7.18916 19.352 7.30009 19.3102 7.40086C19.2683 7.50163 19.1975 7.58768 19.1067 7.64809C19.0158 7.70849 18.9091 7.74052 18.8 7.74008Z" fill="#59D8D5"/>
<path d="M16 12.6499H8C7.86739 12.6499 7.74021 12.5972 7.64645 12.5035C7.55268 12.4097 7.5 12.2825 7.5 12.1499C7.5 12.0173 7.55268 11.8901 7.64645 11.7963C7.74021 11.7026 7.86739 11.6499 8 11.6499H16C16.1326 11.6499 16.2598 11.7026 16.3536 11.7963C16.4473 11.8901 16.5 12.0173 16.5 12.1499C16.5 12.2825 16.4473 12.4097 16.3536 12.5035C16.2598 12.5972 16.1326 12.6499 16 12.6499Z" fill="#F5F5F5"/>
<path d="M16 15.5H8C7.86739 15.5 7.74021 15.4473 7.64645 15.3536C7.55268 15.2598 7.5 15.1326 7.5 15C7.5 14.8674 7.55268 14.7402 7.64645 14.6464C7.74021 14.5527 7.86739 14.5 8 14.5H16C16.1326 14.5 16.2598 14.5527 16.3536 14.6464C16.4473 14.7402 16.5 14.8674 16.5 15C16.5 15.1326 16.4473 15.2598 16.3536 15.3536C16.2598 15.4473 16.1326 15.5 16 15.5Z" fill="#F5F5F5"/>
<path d="M16 18.3501H8C7.86739 18.3501 7.74021 18.2974 7.64645 18.2037C7.55268 18.1099 7.5 17.9827 7.5 17.8501C7.5 17.7175 7.55268 17.5903 7.64645 17.4965C7.74021 17.4028 7.86739 17.3501 8 17.3501H16C16.1326 17.3501 16.2598 17.4028 16.3536 17.4965C16.4473 17.5903 16.5 17.7175 16.5 17.8501C16.5 17.9827 16.4473 18.1099 16.3536 18.2037C16.2598 18.2974 16.1326 18.3501 16 18.3501Z" fill="#F5F5F5"/>
</svg>
