<svg width="24" height="24" viewBox="0 0 24 24" fill="none" xmlns="http://www.w3.org/2000/svg">
<path d="M16.5 22H7.5C6.70435 22 5.94129 21.6839 5.37868 21.1213C4.81607 20.5587 4.5 19.7956 4.5 19V5C4.5 4.20435 4.81607 3.44129 5.37868 2.87868C5.94129 2.31607 6.70435 2 7.5 2H14.09C14.3523 2.0011 14.6037 2.10526 14.79 2.29L19.21 6.71C19.3947 6.89626 19.4989 7.14766 19.5 7.41V19C19.5 19.7956 19.1839 20.5587 18.6213 21.1213C18.0587 21.6839 17.2956 22 16.5 22Z" fill="#FF9800"/>
<path d="M18.8 7.74008H15.2C14.8021 7.74008 14.4206 7.58205 14.1393 7.30074C13.858 7.01944 13.7 6.63791 13.7 6.24008V2.64008C13.6995 2.53098 13.7315 2.42422 13.7919 2.33337C13.8524 2.24252 13.9384 2.17169 14.0392 2.12988C14.1399 2.08807 14.2509 2.07718 14.3579 2.09858C14.4648 2.11998 14.563 2.17272 14.64 2.25008L19.19 6.80008C19.2673 6.87701 19.3201 6.9752 19.3415 7.08218C19.3629 7.18916 19.352 7.30009 19.3102 7.40086C19.2683 7.50163 19.1975 7.58768 19.1067 7.64809C19.0158 7.70849 18.9091 7.74052 18.8 7.74008Z" fill="#FFD180"/>
<path d="M7.83004 19.1299C7.76149 19.1383 7.69195 19.1308 7.62678 19.1079C7.56161 19.0851 7.50257 19.0476 7.45423 18.9983C7.40589 18.949 7.36954 18.8892 7.34801 18.8236C7.32647 18.758 7.32032 18.6883 7.33004 18.6199V15.6899C7.32032 15.6216 7.32647 15.5519 7.34801 15.4863C7.36954 15.4207 7.40589 15.3609 7.45423 15.3116C7.50257 15.2623 7.56161 15.2248 7.62678 15.2019C7.69195 15.1791 7.76149 15.1716 7.83004 15.1799C7.89154 15.173 7.95382 15.1789 8.01296 15.1971C8.07211 15.2153 8.12686 15.2456 8.17378 15.2859C8.22071 15.3263 8.25881 15.3759 8.28569 15.4317C8.31258 15.4874 8.32767 15.5481 8.33004 15.6099C8.40699 15.4702 8.52593 15.3583 8.67004 15.2899C8.82829 15.2105 9.00298 15.1694 9.18004 15.1699C9.40652 15.165 9.62933 15.2277 9.82004 15.3499C10.0117 15.4753 10.1641 15.652 10.26 15.8599C10.3659 16.1081 10.4205 16.3751 10.4205 16.6449C10.4205 16.9148 10.3659 17.1818 10.26 17.4299C10.1678 17.6372 10.0187 17.814 9.83004 17.9399C9.63465 18.0589 9.40866 18.118 9.18004 18.1099C9.01386 18.1093 8.8499 18.0718 8.70004 17.9999C8.55646 17.9365 8.43474 17.8321 8.35004 17.6999V18.6099C8.3564 18.6794 8.34723 18.7494 8.3232 18.8148C8.29917 18.8803 8.26088 18.9396 8.2111 18.9884C8.16132 19.0372 8.1013 19.0743 8.03539 19.0971C7.96948 19.1198 7.89934 19.1277 7.83004 19.1199V19.1299ZM8.83004 17.3699C8.90312 17.3723 8.97572 17.3572 9.04181 17.3259C9.10789 17.2946 9.16556 17.248 9.21004 17.1899C9.32588 17.0313 9.37927 16.8355 9.36004 16.6399C9.37743 16.4446 9.32421 16.2494 9.21004 16.0899C9.16306 16.0355 9.10466 15.992 9.03899 15.9626C8.97331 15.9332 8.90197 15.9186 8.83004 15.9199C8.7582 15.9193 8.68708 15.9342 8.6215 15.9635C8.55593 15.9929 8.49745 16.036 8.45004 16.0899C8.33587 16.2494 8.28265 16.4446 8.30004 16.6399C8.2808 16.8355 8.33419 17.0313 8.45004 17.1899C8.4986 17.251 8.56132 17.2993 8.63276 17.3307C8.7042 17.362 8.78221 17.3755 8.86004 17.3699H8.83004Z" fill="#FFF3E0"/>
<path d="M11.52 19.13C11.4514 19.1384 11.3819 19.1309 11.3167 19.108C11.2516 19.0852 11.1925 19.0477 11.1442 18.9984C11.0958 18.9491 11.0595 18.8893 11.0379 18.8237C11.0164 18.7581 11.0103 18.6884 11.02 18.62V15.69C11.0094 15.5574 11.0519 15.426 11.1381 15.3248C11.2244 15.2235 11.3474 15.1606 11.48 15.15C11.6126 15.1394 11.744 15.1819 11.8452 15.2682C11.9465 15.3545 12.0094 15.4774 12.02 15.61C12.0969 15.4703 12.2159 15.3584 12.36 15.29C12.5214 15.2095 12.6996 15.1683 12.88 15.17C13.1033 15.1653 13.3229 15.228 13.51 15.35C13.7016 15.4754 13.8541 15.6521 13.95 15.86C14.0559 16.1082 14.1105 16.3752 14.1105 16.645C14.1105 16.9149 14.0559 17.1819 13.95 17.43C13.8577 17.6373 13.7086 17.8141 13.52 17.94C13.3277 18.0577 13.1053 18.1168 12.88 18.11C12.7112 18.1137 12.5438 18.0795 12.39 18.01C12.2482 17.9438 12.1272 17.84 12.04 17.71V18.62C12.0458 18.6889 12.0372 18.7583 12.0148 18.8237C11.9924 18.8891 11.9567 18.9491 11.91 19C11.8569 19.0466 11.7951 19.0821 11.7281 19.1044C11.6611 19.1267 11.5904 19.1354 11.52 19.13ZM12.52 17.37C12.5931 17.3724 12.6657 17.3573 12.7317 17.326C12.7978 17.2947 12.8555 17.2481 12.9 17.19C13.0158 17.0313 13.0692 16.8356 13.05 16.64C13.0674 16.4447 13.0141 16.2495 12.9 16.09C12.853 16.0355 12.7946 15.9921 12.7289 15.9627C12.6633 15.9333 12.5919 15.9187 12.52 15.92C12.4481 15.9194 12.377 15.9343 12.3114 15.9636C12.2459 15.9929 12.1874 16.0361 12.14 16.09C12.0258 16.2495 11.9726 16.4447 11.99 16.64C11.9707 16.8356 12.0241 17.0313 12.14 17.19C12.1885 17.2511 12.2513 17.2994 12.3227 17.3308C12.3941 17.3621 12.4722 17.3756 12.55 17.37H12.52Z" fill="#FFF3E0"/>
<path d="M16.16 18.1099C15.8177 18.1406 15.4768 18.0366 15.21 17.8199C15.0992 17.6993 15.0144 17.5571 14.9611 17.4023C14.9078 17.2474 14.887 17.0832 14.9 16.9199V15.9999H14.71C14.6578 16.0081 14.6044 16.0041 14.554 15.988C14.5037 15.972 14.4577 15.9444 14.4199 15.9076C14.382 15.8707 14.3533 15.8255 14.3359 15.7755C14.3186 15.7256 14.3132 15.6723 14.32 15.6199C14.32 15.3699 14.45 15.2499 14.71 15.2499H14.9V14.8899C14.8887 14.8215 14.8918 14.7515 14.909 14.6844C14.9262 14.6173 14.9572 14.5544 15 14.4999C15.0516 14.4541 15.1117 14.4191 15.177 14.3967C15.2422 14.3744 15.3112 14.3653 15.38 14.3699C15.4493 14.3598 15.52 14.3661 15.5865 14.3882C15.653 14.4102 15.7134 14.4475 15.7629 14.497C15.8124 14.5466 15.8497 14.607 15.8718 14.6734C15.8938 14.7399 15.9001 14.8106 15.89 14.8799V15.2399H16.36C16.62 15.2399 16.75 15.3599 16.75 15.6099C16.7569 15.6623 16.7514 15.7156 16.7341 15.7655C16.7168 15.8155 16.688 15.8607 16.6502 15.8976C16.6123 15.9344 16.5664 15.962 16.516 15.978C16.4656 15.9941 16.4122 15.9981 16.36 15.9899H15.89V16.8799C15.8816 16.937 15.8867 16.9953 15.9048 17.0501C15.9229 17.1049 15.9536 17.1547 15.9944 17.1955C16.0352 17.2363 16.085 17.267 16.1398 17.2851C16.1946 17.3033 16.2529 17.3083 16.31 17.2999H16.46H16.6C16.6278 17.2989 16.6555 17.3038 16.6813 17.3141C16.7072 17.3244 16.7306 17.34 16.75 17.3599C16.75 17.3599 16.75 17.4899 16.75 17.6299C16.7719 17.7253 16.7719 17.8245 16.75 17.9199C16.7338 17.9594 16.7094 17.995 16.6784 18.0243C16.6473 18.0537 16.6104 18.076 16.57 18.0899C16.4969 18.098 16.4231 18.098 16.35 18.0899C16.2875 18.103 16.2239 18.1097 16.16 18.1099Z" fill="#FFF3E0"/>
</svg>
