<svg width="24" height="24" viewBox="0 0 24 24" fill="none" xmlns="http://www.w3.org/2000/svg">
<path d="M16.5 22H7.5C6.70435 22 5.94129 21.6839 5.37868 21.1213C4.81607 20.5587 4.5 19.7956 4.5 19V5C4.5 4.20435 4.81607 3.44129 5.37868 2.87868C5.94129 2.31607 6.70435 2 7.5 2H14.09C14.3523 2.0011 14.6037 2.10526 14.79 2.29L19.21 6.71C19.3947 6.89626 19.4989 7.14766 19.5 7.41V19C19.5 19.7956 19.1839 20.5587 18.6213 21.1213C18.0587 21.6839 17.2956 22 16.5 22Z" fill="#F44336"/>
<path d="M18.8 7.74008H15.2C14.8021 7.74008 14.4206 7.58205 14.1393 7.30074C13.858 7.01944 13.7 6.63791 13.7 6.24008V2.64008C13.6995 2.53098 13.7315 2.42422 13.7919 2.33337C13.8524 2.24252 13.9384 2.17169 14.0392 2.12988C14.1399 2.08807 14.2509 2.07718 14.3579 2.09858C14.4648 2.11998 14.563 2.17272 14.64 2.25008L19.19 6.80008C19.2673 6.87701 19.3201 6.9752 19.3415 7.08218C19.3629 7.18916 19.352 7.30009 19.3102 7.40086C19.2683 7.50163 19.1975 7.58768 19.1067 7.64809C19.0158 7.70849 18.9091 7.74052 18.8 7.74008Z" fill="#FF8A80"/>
<path d="M7.89004 19.1301C7.82073 19.1401 7.75003 19.1339 7.68356 19.1118C7.61709 19.0897 7.55669 19.0525 7.50717 19.0029C7.45764 18.9534 7.42036 18.893 7.39829 18.8265C7.37622 18.7601 7.36997 18.6894 7.38004 18.6201V15.6901C7.37032 15.6217 7.37647 15.552 7.39801 15.4864C7.41954 15.4208 7.45589 15.361 7.50423 15.3117C7.55257 15.2624 7.61161 15.2249 7.67678 15.2021C7.74195 15.1792 7.81149 15.1717 7.88004 15.1801C7.94154 15.1731 8.00382 15.179 8.06296 15.1972C8.12211 15.2155 8.17686 15.2457 8.22378 15.2861C8.27071 15.3264 8.30881 15.376 8.33569 15.4318C8.36258 15.4875 8.37768 15.5482 8.38004 15.6101C8.46066 15.4697 8.58299 15.3578 8.73004 15.2901C8.88747 15.2084 9.06272 15.1672 9.24004 15.1701C9.46629 15.1669 9.6886 15.2294 9.88004 15.3501C10.0687 15.476 10.2178 15.6528 10.31 15.8601C10.4159 16.1082 10.4705 16.3752 10.4705 16.6451C10.4705 16.9149 10.4159 17.1819 10.31 17.4301C10.1737 17.7079 9.93528 17.9223 9.64458 18.0286C9.35388 18.1348 9.03339 18.1246 8.75004 18.0001C8.60824 17.9338 8.48723 17.8301 8.40004 17.7001V18.6101C8.40581 18.6789 8.39724 18.7483 8.37487 18.8137C8.35249 18.8791 8.3168 18.9392 8.27004 18.9901C8.21928 19.0376 8.1595 19.0745 8.09423 19.0986C8.02895 19.1226 7.95952 19.1333 7.89004 19.1301ZM8.89004 17.3701C8.96288 17.3709 9.03496 17.3551 9.1008 17.3239C9.16663 17.2927 9.22451 17.2469 9.27004 17.1901C9.38151 17.0296 9.43123 16.8343 9.41004 16.6401C9.43033 16.4459 9.38068 16.2509 9.27004 16.0901C9.22263 16.0361 9.16415 15.993 9.09857 15.9636C9.033 15.9343 8.96187 15.9194 8.89004 15.9201C8.81663 15.9187 8.74377 15.9331 8.67646 15.9625C8.60915 15.9918 8.54897 16.0353 8.50004 16.0901C8.3946 16.2532 8.34543 16.4464 8.36004 16.6401C8.34391 16.8339 8.3932 17.0275 8.50004 17.1901C8.54957 17.2526 8.61391 17.3018 8.68724 17.3332C8.76058 17.3647 8.84059 17.3773 8.92004 17.3701H8.89004Z" fill="#FFEBEE"/>
<path d="M12.1699 18.11C11.9476 18.1184 11.7279 18.0591 11.5399 17.94C11.3483 17.8147 11.1959 17.6379 11.0999 17.43C10.994 17.1818 10.9395 16.9148 10.9395 16.645C10.9395 16.3752 10.994 16.1082 11.0999 15.86C11.1959 15.6521 11.3483 15.4753 11.5399 15.35C11.7271 15.228 11.9466 15.1652 12.1699 15.17C12.3439 15.1684 12.5157 15.2096 12.6699 15.29C12.8081 15.3527 12.9285 15.4489 13.0199 15.57V14.48C13.0099 14.4107 13.0161 14.34 13.0382 14.2735C13.0603 14.2071 13.0976 14.1467 13.1471 14.0971C13.1966 14.0476 13.257 14.0103 13.3235 13.9883C13.3899 13.9662 13.4606 13.9599 13.5299 13.97C13.5972 13.965 13.6649 13.974 13.7285 13.9964C13.7922 14.0187 13.8506 14.054 13.8999 14.1C13.9467 14.1509 13.9824 14.211 14.0048 14.2764C14.0272 14.3418 14.0357 14.4111 14.0299 14.48V17.59C14.0406 17.7226 13.9981 17.854 13.9118 17.9553C13.8255 18.0565 13.7026 18.1194 13.5699 18.13C13.5043 18.1353 13.4382 18.1275 13.3756 18.1072C13.3129 18.087 13.2548 18.0546 13.2047 18.0118C13.1034 17.9256 13.0406 17.8026 13.0299 17.67C12.953 17.8097 12.8341 17.9217 12.6899 17.99C12.5286 18.0706 12.3503 18.1117 12.1699 18.11ZM12.4999 17.37C12.5728 17.3708 12.6449 17.355 12.7107 17.3238C12.7765 17.2926 12.8344 17.2469 12.8799 17.19C12.9958 17.0313 13.0492 16.8355 13.0299 16.64C13.0473 16.4446 12.9941 16.2495 12.8799 16.09C12.8325 16.036 12.7741 15.9929 12.7085 15.9636C12.6429 15.9342 12.5718 15.9194 12.4999 15.92C12.428 15.9187 12.3567 15.9333 12.291 15.9626C12.2253 15.992 12.1669 16.0355 12.1199 16.09C12.0058 16.2495 11.9526 16.4446 11.9699 16.64C11.9507 16.8355 12.0041 17.0313 12.1199 17.19C12.1644 17.2481 12.2221 17.2947 12.2882 17.326C12.3543 17.3573 12.4269 17.3724 12.4999 17.37Z" fill="#FFEBEE"/>
<path d="M15.52 18.0999C15.4511 18.1079 15.3813 18.1002 15.3158 18.0774C15.2503 18.0546 15.1908 18.0173 15.1417 17.9682C15.0926 17.9192 15.0553 17.8597 15.0325 17.7942C15.0097 17.7286 15.002 17.6588 15.01 17.5899V15.9999H14.86C14.8078 16.0081 14.7544 16.0041 14.704 15.988C14.6537 15.972 14.6077 15.9444 14.5699 15.9076C14.532 15.8707 14.5033 15.8255 14.486 15.7755C14.4686 15.7256 14.4632 15.6723 14.47 15.6199C14.47 15.3699 14.6 15.2499 14.86 15.2499H15C14.9957 15.0895 15.0235 14.9299 15.0819 14.7805C15.1403 14.631 15.2281 14.4948 15.34 14.3799C15.5981 14.1608 15.9218 14.0341 16.26 14.0199H16.43C16.5231 13.9826 16.627 13.9826 16.72 14.0199C16.7875 14.0584 16.8403 14.1182 16.87 14.1899C16.8849 14.2625 16.8849 14.3373 16.87 14.4099C16.8585 14.4804 16.8273 14.5463 16.78 14.5999C16.7356 14.6557 16.6709 14.6917 16.6 14.6999H16.52C16.3738 14.6933 16.2296 14.7356 16.11 14.8199C16.0713 14.8612 16.0415 14.91 16.0226 14.9634C16.0037 15.0167 15.996 15.0734 16 15.1299V15.2199H16.32C16.58 15.2199 16.71 15.3399 16.71 15.5899C16.7169 15.6423 16.7114 15.6956 16.6941 15.7455C16.6768 15.7955 16.648 15.8407 16.6102 15.8776C16.5723 15.9144 16.5264 15.942 16.476 15.958C16.4257 15.9741 16.3723 15.9781 16.32 15.9699H16V17.5699C16.0126 17.6379 16.0093 17.7079 15.9904 17.7745C15.9715 17.841 15.9375 17.9023 15.891 17.9535C15.8446 18.0048 15.787 18.0447 15.7226 18.0701C15.6583 18.0954 15.589 18.1057 15.52 18.0999Z" fill="#FFEBEE"/>
</svg>
