<svg width="24" height="24" viewBox="0 0 24 24" fill="none" xmlns="http://www.w3.org/2000/svg">
<path d="M16.5 22H7.5C6.70435 22 5.94129 21.6839 5.37868 21.1213C4.81607 20.5587 4.5 19.7956 4.5 19V5C4.5 4.20435 4.81607 3.44129 5.37868 2.87868C5.94129 2.31607 6.70435 2 7.5 2H14.09C14.3523 2.0011 14.6037 2.10526 14.79 2.29L19.21 6.71C19.3947 6.89626 19.4989 7.14766 19.5 7.41V19C19.5 19.7956 19.1839 20.5587 18.6213 21.1213C18.0587 21.6839 17.2956 22 16.5 22Z" fill="#4CAF50"/>
<path d="M18.8 7.74008H15.2C14.8021 7.74008 14.4206 7.58205 14.1393 7.30074C13.858 7.01944 13.7 6.63791 13.7 6.24008V2.64008C13.6995 2.53098 13.7315 2.42422 13.7919 2.33337C13.8524 2.24252 13.9384 2.17169 14.0392 2.12988C14.1399 2.08807 14.2509 2.07718 14.3579 2.09858C14.4648 2.11998 14.563 2.17272 14.64 2.25008L19.19 6.80008C19.2673 6.87701 19.3201 6.9752 19.3415 7.08218C19.3629 7.18916 19.352 7.30009 19.3102 7.40086C19.2683 7.50163 19.1975 7.58768 19.1067 7.64809C19.0158 7.70849 18.9091 7.74052 18.8 7.74008Z" fill="#B9F6CA"/>
<path d="M8.43996 18.0999C8.32777 18.1065 8.21718 18.0708 8.12996 17.9999C8.08852 17.9684 8.05514 17.9275 8.03255 17.8805C8.00995 17.8336 7.99879 17.782 7.99996 17.7299C8.00302 17.611 8.04922 17.4973 8.12996 17.4099L8.78996 16.5999L8.19996 15.8799C8.11519 15.7911 8.06853 15.6727 8.06996 15.5499C8.06924 15.5013 8.07865 15.4531 8.09758 15.4084C8.11652 15.3636 8.14458 15.3233 8.17996 15.2899C8.26571 15.2155 8.37645 15.1762 8.48996 15.1799C8.59408 15.1793 8.69688 15.2033 8.78996 15.2499C8.87828 15.2977 8.95642 15.3622 9.01996 15.4399L9.36996 15.8999L9.72996 15.4399C9.78775 15.3606 9.86303 15.2956 9.94996 15.2499C10.043 15.2033 10.1458 15.1793 10.25 15.1799C10.3635 15.1762 10.4742 15.2155 10.56 15.2899C10.5953 15.3233 10.6234 15.3636 10.6423 15.4084C10.6613 15.4531 10.6707 15.5013 10.67 15.5499C10.6675 15.6719 10.6214 15.789 10.54 15.8799L9.93996 16.5999L10.61 17.4099C10.6521 17.4517 10.6853 17.5017 10.7077 17.5566C10.73 17.6116 10.741 17.6706 10.74 17.7299C10.7423 17.7797 10.7327 17.8294 10.7118 17.8746C10.6909 17.9199 10.6594 17.9594 10.62 17.9899C10.5342 18.0644 10.4235 18.1037 10.31 18.0999C10.1998 18.0935 10.0931 18.059 9.99996 17.9999C9.90954 17.951 9.83101 17.8827 9.76996 17.7999L9.33996 17.2599L8.99996 17.8399C8.93972 17.917 8.86498 17.9816 8.77996 18.0299C8.6769 18.0887 8.55785 18.1132 8.43996 18.0999Z" fill="#E8F5E9"/>
<path d="M12.53 18.1099C12.3819 18.1249 12.2323 18.1067 12.0922 18.0565C11.9521 18.0063 11.8249 17.9255 11.72 17.8199C11.5294 17.5641 11.4371 17.2482 11.46 16.9299V14.4799C11.4538 14.41 11.4641 14.3396 11.49 14.2743C11.516 14.2091 11.5568 14.1508 11.6093 14.1041C11.6618 14.0575 11.7244 14.0238 11.7923 14.0057C11.8601 13.9876 11.9312 13.9856 12 13.9999C12.0688 13.9953 12.1378 14.0044 12.203 14.0268C12.2683 14.0491 12.3284 14.0841 12.38 14.1299C12.4267 14.1808 12.4624 14.2409 12.4848 14.3063C12.5072 14.3717 12.5158 14.441 12.51 14.5099V16.8999C12.5034 17.0091 12.5314 17.1176 12.59 17.2099C12.6182 17.2396 12.6524 17.263 12.6903 17.2785C12.7282 17.294 12.769 17.3013 12.81 17.2999H13C13.0275 17.2976 13.0551 17.3029 13.0798 17.3152C13.1045 17.3276 13.1253 17.3465 13.14 17.3699C13.1813 17.4677 13.1985 17.5741 13.19 17.6799C13.1951 17.7858 13.1672 17.8907 13.11 17.9799C13.0436 18.0501 12.9555 18.0959 12.86 18.1099H12.73H12.53Z" fill="#E8F5E9"/>
<path d="M14.6901 18.11C14.517 18.1245 14.3431 18.1245 14.1701 18.11C14.0112 18.0894 13.8562 18.0456 13.7101 17.98C13.6582 17.9656 13.6099 17.9403 13.5686 17.9058C13.5272 17.8713 13.4936 17.8285 13.4701 17.78C13.4403 17.6959 13.4403 17.6041 13.4701 17.52C13.4962 17.4355 13.5534 17.3641 13.6301 17.32C13.6714 17.2972 13.7179 17.2853 13.7651 17.2853C13.8123 17.2853 13.8587 17.2972 13.9001 17.32C14.0389 17.3746 14.183 17.4148 14.3301 17.44C14.4563 17.4543 14.5838 17.4543 14.7101 17.44C14.8137 17.4482 14.9176 17.4275 15.0101 17.38C15.038 17.3639 15.0612 17.3405 15.077 17.3123C15.0928 17.2842 15.1008 17.2523 15.1001 17.22C15.1017 17.1951 15.097 17.1701 15.0866 17.1474C15.0761 17.1247 15.0601 17.105 15.0401 17.09C14.989 17.0567 14.9307 17.0361 14.8701 17.03L14.2401 16.92C14.0336 16.9017 13.8396 16.8135 13.6901 16.67C13.6235 16.5991 13.5717 16.5158 13.5373 16.4249C13.503 16.334 13.487 16.2372 13.4901 16.14C13.4901 15.9561 13.5497 15.7771 13.6601 15.63C13.781 15.4807 13.9399 15.3667 14.1201 15.3C14.3371 15.2172 14.5678 15.1765 14.8001 15.18C14.9565 15.1688 15.1136 15.1688 15.2701 15.18C15.411 15.2085 15.5485 15.2521 15.6801 15.31C15.7261 15.3264 15.768 15.3529 15.8026 15.3875C15.8372 15.4221 15.8636 15.4639 15.8801 15.51C15.9098 15.5941 15.9098 15.6859 15.8801 15.77C15.8493 15.8525 15.7886 15.9203 15.7101 15.96C15.6669 15.9828 15.6188 15.9947 15.5701 15.9947C15.5213 15.9947 15.4732 15.9828 15.4301 15.96C15.3199 15.9141 15.2062 15.8774 15.0901 15.85C15.0002 15.8417 14.9099 15.8417 14.8201 15.85C14.7057 15.8424 14.5915 15.8666 14.4901 15.92C14.4602 15.9348 14.4351 15.9576 14.4174 15.9859C14.3998 16.0141 14.3903 16.0467 14.3901 16.08C14.3901 16.18 14.4601 16.24 14.6001 16.27L15.2401 16.38C15.4471 16.3998 15.6429 16.4837 15.8001 16.62C15.8672 16.6884 15.9196 16.7698 15.954 16.8593C15.9884 16.9487 16.0041 17.0443 16.0001 17.14C16.0061 17.2807 15.9762 17.4206 15.9132 17.5466C15.8502 17.6725 15.7562 17.7804 15.6401 17.86C15.3586 18.0435 15.0254 18.1312 14.6901 18.11Z" fill="#E8F5E9"/>
</svg>
